<svg
    id="bg"
    baseProfile="full"
    xmlns="http://www.w3.org/2000/svg"
    xmlns:xlink="http://www.w3.org/1999/xlink"
    xmlns:ev="http://www.w3.org/2001/xml-events"
    style="shape-rendering:geometricPrecision; text-rendering:geometricPrecision; image-rendering:optimizeQuality; fill-rule:evenodd; clip-rule:evenodd"
    version="1.1"
  >

    <defs>
      <symbol id="bg-char-1" width="14px" height="15px" viewBox="0 0 88 98">
        <g class="svg__bg-chars">
        <path class="fil0" d="M27 98c-12,-4 -18,-12 -18,-24l0 -10c0,-7 -3,-10 -9,-10l0 -10c6,0 9,-4 9,-10l0 -11c0,-6 1,-11 4,-15 3,-4 8,-6 14,-8l3 8c-3,1 -5,3 -6,5 -1,2 -2,5 -2,9l0 11c0,7 -3,13 -9,16 6,3 9,8 9,16l0 10c0,8 3,13 8,15l-3 8z"/>
        <path id="1" class="fil0" d="M58 90c5,-2 8,-7 8,-15l0 -11c0,-7 3,-12 9,-15 -6,-3 -9,-8 -9,-16l0 -11c0,-7 -3,-12 -8,-14l3 -8c6,2 11,4 14,8 3,4 4,9 4,15l0 11c0,6 3,10 9,10l0 10c-6,0 -9,3 -9,10l0 11c0,12 -6,19 -18,23l-3 -8z"/>
        </g>
      </symbol>

      <symbol id="bg-char-2" width="9px" height="11px" viewBox="0 0 36 47">
        <g class="svg__bg-chars">
          <path class="fil0" d="M20 34l-7 0 -2 13 -6 0 2 -13 -7 0 0 -6 8 0 2 -9 -8 0 0 -6 9 0 2 -13 6 0 -2 13 6 0 3 -13 6 0 -3 13 7 0 0 6 -8 0 -1 9 7 0 0 6 -8 0 -3 13 -6 0 3 -13zm-6 -6l7 0 1 -9 -6 0 -2 9z"/>
        </g>
      </symbol>

      <symbol id="bg-char-3" width="21px" height="12px" viewBox="0 0 217 125">
        <g class="svg__bg-chars">
        <polygon class="fil0" points="23,66 68,82 68,104 0,75 0,57 68,28 68,50 "/>
        <polygon id="1" class="fil0" points="94,125 77,125 119,0 136,0 "/>
        <polygon id="2" class="fil0" points="194,66 148,50 148,28 217,57 217,75 148,104 148,82 "/>
        </g>
      </symbol>

      <symbol id="bg-char-4" width="37px" height="12px" viewBox="0 0 650 215">
        <g class="svg__bg-chars">
          <polygon class="fil0" points="40,127 119,154 119,193 0,143 0,110 119,60 119,98 "/>
          <path id="1" class="fil0" d="M145 136c0,-23 6,-42 16,-55 11,-14 25,-21 43,-21 14,0 26,5 36,16l0 -76 40 0 0 212 -36 0 -2 -16c-10,13 -23,19 -38,19 -18,0 -32,-7 -43,-21 -10,-14 -16,-33 -16,-58zm40 3c0,14 3,25 8,32 4,8 12,12 21,12 12,0 21,-6 26,-16l0 -59c-5,-11 -14,-16 -26,-16 -19,0 -29,16 -29,47z"/>
          <path id="2" class="fil0" d="M353 212l-40 0 0 -149 40 0 0 149zm-42 -188c0,-6 2,-11 6,-15 4,-3 9,-5 16,-5 7,0 12,2 16,5 4,4 6,9 6,15 0,6 -2,11 -6,15 -4,4 -9,6 -16,6 -7,0 -12,-2 -16,-6 -4,-4 -6,-9 -6,-15z"/>
          <polygon id="3" class="fil0" points="442,163 469,63 511,63 461,212 423,212 372,63 414,63 "/>
          <polygon id="4" class="fil0" points="610,126 530,98 530,60 650,110 650,143 530,193 530,155 "/>
        </g>
      </symbol>

      <symbol id="bg-figure-1" viewBox="0 0 14384 11142">
        <g class="svg__bg-figures">
          <path class="fil0" d="M360 11142c-643,-1103 -374,-2446 407,-3863 1583,-2870 3522,-4674 4845,-5753 2333,-1903 6266,-2405 8772,725 0,2964 0,5927 0,8891 -4674,0 -9349,0 -14024,0z"/>
        </g>
      </symbol>
    </defs>
  </svg>