<?xml version="1.0" encoding="UTF-8"?>
<!DOCTYPE svg PUBLIC "-//W3C//DTD SVG 1.1//EN" "http://www.w3.org/Graphics/SVG/1.1/DTD/svg11.dtd">
<!-- Creator: CorelDRAW X6 -->
<?xml-stylesheet href="btn-close.css" type="text/css"?>
<svg xmlns="http://www.w3.org/2000/svg" xml:space="preserve" width="200px" height="200px" version="1.1" style="shape-rendering:geometricPrecision; text-rendering:geometricPrecision; image-rendering:optimizeQuality; fill-rule:evenodd; clip-rule:evenodd"
viewBox="0 0 192 192"
 xmlns:xlink="http://www.w3.org/1999/xlink">
 <defs>
 <linearGradient id="id0" gradientUnits="userSpaceOnUse" x1="73.1128" y1="194.469" x2="118.637" y2="-2.71908">
  <stop offset="0" style="stop-color:#FF8F5A"/>
  <stop offset="1" style="stop-color:#FF2F96"/>
 </linearGradient>
 </defs>
 <g id="default">
  <metadata id="CorelCorpID_0Corel-Layer"/>
  <path class="fil0" d="M150 139l-43 -43 43 -43 -11 -11 -43 42 -43 -42 -11 11 42 43 -42 43 11 11 43 -43 43 43 11 -11zm-54 45c-49,0 -89,-39 -89,-88 0,-49 40,-89 89,-89 49,0 88,40 88,89 0,49 -39,88 -88,88zm0 8c-53,0 -96,-43 -96,-96 0,-53 43,-96 96,-96 53,0 96,43 96,96 0,53 -43,96 -96,96z"/>
 </g>
</svg>
