<?xml version="1.0" encoding="UTF-8"?>
<!DOCTYPE svg PUBLIC "-//W3C//DTD SVG 1.1//EN" "http://www.w3.org/Graphics/SVG/1.1/DTD/svg11.dtd">
<!-- Creator: CorelDRAW X6 -->
<?xml-stylesheet href="design.css" type="text/css"?>
<svg xmlns="http://www.w3.org/2000/svg" xml:space="preserve" width="300px" height="300px" version="1.1" style="shape-rendering:geometricPrecision; text-rendering:geometricPrecision; image-rendering:optimizeQuality; fill-rule:evenodd; clip-rule:evenodd"
viewBox="0 0 288 288"
 xmlns:xlink="http://www.w3.org/1999/xlink">
 <g id="default">
  <metadata id="CorelCorpID_0Corel-Layer"/>
  <path class="fil0" d="M144 288c-80,0 -144,-65 -144,-144 0,-80 64,-144 144,-144 79,0 144,64 144,144 0,79 -65,144 -144,144zm0 -11c-74,0 -133,-60 -133,-133 0,-74 59,-133 133,-133 73,0 133,59 133,133 0,73 -60,133 -133,133z"/>
  <polygon class="fil1" points="225,208 161,144 225,80 208,63 144,127 80,63 63,80 127,144 63,208 80,225 144,161 208,225 "/>
 </g>
</svg>
