<svg
  id="icons"
  baseProfile="full"
  xmlns="http://www.w3.org/2000/svg"
  xmlns:xlink="http://www.w3.org/1999/xlink"
  xmlns:ev="http://www.w3.org/2001/xml-events"
  style="shape-rendering:geometricPrecision; text-rendering:geometricPrecision; image-rendering:optimizeQuality; fill-rule:evenodd; clip-rule:evenodd"
  version="1.1"
>

  <defs>

    <symbol id="icon-1" viewBox="0 0 883 817">
      <g class="svg__icons">
        <path class="fil0" d="M73 0l737 0c20,0 39,8 52,21 13,14 21,32 21,52l0 462 0 38c0,20 -8,38 -21,51 -13,14 -32,22 -52,22l-245 0c2,59 4,109 21,137l61 0c10,0 17,7 17,17 0,9 -7,17 -17,17l-411 0c-10,0 -17,-8 -17,-17 0,-10 7,-17 17,-17l61 0c17,-28 19,-78 21,-137l-245 0c-20,0 -38,-8 -52,-22 -13,-13 -21,-31 -21,-51l0 -38 0 -462c0,-20 8,-38 21,-52 14,-13 32,-21 52,-21zm737 34l-737 0c-11,0 -21,4 -28,11 -7,7 -11,17 -11,28l0 445 816 0 0 -445c0,-11 -5,-21 -12,-28 -7,-7 -17,-11 -28,-11zm40 539l0 -21 -816 0 0 21c0,11 4,21 11,28 7,7 17,11 28,11l737 0c11,0 21,-4 28,-11 7,-7 12,-17 12,-28zm-318 73l-181 0c-1,55 -3,102 -17,137l215 0c-14,-35 -16,-82 -17,-137zm-249 -169c-9,0 -16,-8 -16,-17 0,-10 7,-17 16,-17l412 0c9,0 17,7 17,17 0,9 -8,17 -17,17l-412 0zm-95 2c-9,0 -16,-8 -16,-17 0,-9 7,-17 16,-17l1 0c10,0 17,8 17,17 0,9 -7,17 -17,17l-1 0zm115 -351c6,-7 17,-6 23,1 6,7 6,17 -1,23l-109 100 109 101c7,6 7,16 1,23 -6,7 -17,8 -23,1l-124 -112c0,-1 0,-1 -1,-1 -6,-7 -5,-18 1,-24l124 -112zm171 -29c2,-9 12,-14 21,-11 8,3 13,12 11,21l-96 300c-2,9 -12,14 -21,11 -8,-3 -13,-12 -11,-21l96 -300zm86 53c-7,-6 -7,-16 -1,-23 6,-7 17,-8 24,-1l123 112c7,6 7,17 1,24 0,0 -1,0 -1,1l-123 112c-7,7 -18,6 -24,-1 -6,-7 -6,-17 1,-23l110 -101 -110 -100z"/>
      </g>
    </symbol>

    <symbol id="icon-2" viewBox="0 0 856 813">
      <g class="svg__icons">
        <path class="fil0" d="M71 284l280 0c14,0 26,5 35,14 9,9 14,21 14,35l0 44 0 85 206 0 0 -29c0,-14 5,-26 14,-35 9,-9 21,-14 35,-14l124 0 0 -313c0,-11 -5,-20 -11,-27 -7,-7 -17,-11 -27,-11l-632 0c-11,0 -20,4 -27,11 -7,7 -11,16 -11,27l0 213zm280 32l-297 0 -5 0c-5,0 -9,2 -12,5 -3,3 -4,7 -4,12l0 28 335 0 0 -28c0,-5 -2,-9 -5,-12 -3,-3 -7,-5 -12,-5zm49 179l0 79 206 0 0 -79 -206 0zm0 112l0 65 119 0 -21 -65 -98 0zm0 98l0 17 0 14 117 0c3,0 6,0 8,-2 2,-1 4,-2 5,-5 2,-2 3,-4 4,-7 0,-2 0,-5 -1,-7l-3 -10 -130 0zm-32 57l0 -10 0 -13 -335 0 0 23c0,5 1,9 4,12 3,3 7,5 12,5l302 0c5,0 9,-2 12,-5 3,-3 5,-7 5,-12zm0 -56l0 -17 0 -98 0 -112 0 -86 -335 0 0 313 335 0zm32 63c-2,11 -7,20 -14,28 -9,9 -21,14 -35,14l-302 0c-14,0 -26,-5 -35,-14 -9,-9 -14,-21 -14,-35l0 -40 0 -345 0 -44c0,-14 5,-26 14,-35 7,-6 15,-11 24,-13l0 -214c0,-20 8,-37 21,-50l0 0c13,-13 30,-21 50,-21l632 0c19,0 37,8 49,21l1 0c12,13 20,30 20,50l0 313c12,1 23,6 31,14 8,9 14,21 14,35l0 46 0 244 0 42c0,13 -6,25 -14,34 -9,9 -22,14 -35,14l-152 0c-14,0 -26,-5 -35,-14 -9,-9 -14,-21 -14,-34l0 -42 0 -116 -74 0 25 76c0,0 0,1 0,2l7 20c2,7 3,15 2,23 -2,7 -4,14 -9,21 -5,6 -11,11 -17,15 -7,3 -15,5 -23,5l-117 0zm407 -352l-12 0 -140 0c-5,0 -9,1 -12,4 -3,3 -5,7 -5,12l0 29 185 0 0 -29c0,-5 -2,-9 -5,-12 -3,-3 -7,-4 -11,-4zm16 348l0 -26 -185 0 0 26c0,4 2,8 5,11 3,3 7,5 12,5l152 0c4,0 8,-2 11,-5 3,-3 5,-7 5,-11zm0 -59l0 -211 -185 0 0 96 0 115 185 0zm-120 -97c-6,7 -17,6 -23,0 -6,-7 -6,-17 1,-23l55 -53c6,-6 17,-6 23,0 6,7 6,17 -1,23l-55 53zm28 57c-7,6 -17,6 -23,-1 -6,-6 -6,-16 0,-23l56 -53c6,-6 16,-6 23,1 6,6 6,17 -1,23l-55 53zm-569 -16c-6,6 -16,6 -23,0 -6,-7 -6,-17 1,-23l158 -152c6,-6 16,-6 23,0 6,7 6,17 -1,23l-158 152zm-61 -42c-6,6 -17,6 -23,0 -6,-7 -6,-17 1,-23l41 -41c7,-6 17,-6 23,1 7,6 7,17 0,23l-42 40zm87 -84c-6,6 -16,6 -23,0 -6,-7 -6,-17 1,-23l70 -68c7,-6 17,-6 23,1 7,6 6,16 0,23l-71 67zm326 -370c-7,7 -17,7 -23,0 -6,-6 -6,-17 0,-23l46 -43c6,-7 16,-6 23,0 6,7 6,17 -1,23l-45 43zm-111 107c-7,7 -17,6 -23,0 -7,-7 -6,-17 0,-23l68 -66c7,-6 17,-6 23,1 7,6 6,17 0,23l-68 65zm130 -23c-6,6 -16,6 -23,0 -6,-7 -6,-17 1,-23l68 -66c6,-6 17,-6 23,1 6,6 6,17 -1,23l-68 65zm-87 84c-6,6 -17,6 -23,0 -6,-7 -6,-17 0,-23l43 -41c7,-7 17,-6 23,0 6,7 6,17 0,23l-43 41zm-334 -229c-9,0 -16,-7 -16,-16 0,-9 7,-16 16,-16l1 0c9,0 17,7 17,16 0,9 -8,16 -17,16l-1 0zm59 0c-9,0 -16,-7 -16,-16 0,-9 7,-16 16,-16l1 0c9,0 16,7 16,16 0,9 -7,16 -16,16l-1 0zm59 0c-9,0 -17,-7 -17,-16 0,-9 8,-16 17,-16l1 0c9,0 16,7 16,16 0,9 -7,16 -16,16l-1 0z"/>
      </g>
    </symbol>

    <symbol id="icon-3" viewBox="0 0 730 729">
      <g class="svg__icons">
        <path class="fil0" d="M91 90c-8,0 -15,-7 -15,-15 0,-8 7,-15 15,-15l1 0c8,0 15,7 15,15 0,8 -7,15 -15,15l-1 0zm61 0c-8,0 -15,-7 -15,-15 0,-8 7,-15 15,-15l1 0c8,0 15,7 15,15 0,8 -7,15 -15,15l-1 0zm484 0c-8,0 -15,-7 -15,-15 0,-8 7,-15 15,-15l1 0c8,0 15,7 15,15 0,8 -7,15 -15,15l-1 0zm-564 61c-8,0 -15,-7 -15,-15 0,-8 7,-15 15,-15l206 0c8,0 15,7 15,15 0,8 -7,15 -15,15l-206 0zm382 0c-8,0 -14,-7 -14,-15 0,-8 6,-15 14,-15l189 0c8,0 15,7 15,15 0,8 -7,15 -15,15l-189 0zm-390 -151l601 0c18,0 34,7 46,19l0 0c11,12 19,28 19,45l0 600c0,18 -8,34 -19,46l0 0c-12,11 -28,19 -46,19l-601 0c-17,0 -33,-8 -45,-19l0 0c-12,-12 -19,-28 -19,-46l0 -600c0,-17 7,-33 19,-45l0 0c12,-12 28,-19 45,-19zm601 30l-601 0c-9,0 -18,4 -24,10 -6,6 -10,15 -10,24l0 600c0,10 4,19 10,25 6,6 15,10 24,10l601 0c10,0 19,-4 25,-10 6,-6 10,-15 10,-25l0 -600c0,-9 -4,-18 -10,-24 -6,-6 -15,-10 -25,-10zm-563 209l139 0 115 -110c6,-6 15,-6 21,0l115 110 129 0c12,0 23,5 31,13 8,8 13,19 13,31l0 309c0,12 -5,24 -13,32 -8,8 -19,13 -31,13l-519 0c-12,0 -23,-5 -32,-13 -8,-8 -13,-20 -13,-32l0 -309c0,-12 5,-23 13,-31 9,-8 20,-13 32,-13zm182 0l165 0 -82 -79 -83 79zm337 29l-519 0c-4,0 -8,2 -11,5 -2,2 -4,6 -4,10l0 309c0,4 2,8 4,11 3,2 7,4 11,4l519 0c4,0 8,-2 10,-4 3,-3 5,-7 5,-11l0 -309c0,-4 -2,-8 -5,-10 -2,-3 -6,-5 -10,-5zm-331 210c0,-8 6,-15 14,-15 9,0 15,7 15,15l0 23c0,13 -5,24 -13,32 -8,8 -19,13 -31,13l-36 0c-13,0 -24,-5 -32,-13 -8,-8 -13,-19 -13,-32l0 -124c0,-12 5,-23 13,-31 8,-8 19,-13 32,-13l36 0c12,0 23,5 31,13 8,8 13,19 13,31l0 24c0,8 -6,15 -15,15 -8,0 -14,-7 -14,-15l0 -24c0,-4 -2,-7 -5,-10 -2,-3 -6,-4 -10,-4l-36 0c-4,0 -8,1 -11,4 -3,3 -4,6 -4,10l0 124c0,5 1,8 4,11 3,3 7,4 11,4l36 0c4,0 8,-1 10,-4 3,-3 5,-6 5,-11l0 -23zm72 -70c-8,0 -15,-6 -15,-15 0,-8 7,-15 15,-15l16 0 0 -34c0,-8 7,-15 15,-15 8,0 15,7 15,15l0 34 53 0 0 -34c0,-8 7,-15 15,-15 8,0 15,7 15,15l0 34 16 0c8,0 15,7 15,15 0,9 -7,15 -15,15l-16 0 0 63 16 0c8,0 15,7 15,15 0,8 -7,15 -15,15l-16 0 0 34c0,8 -7,15 -15,15 -8,0 -15,-7 -15,-15l0 -34 -53 0 0 34c0,8 -7,15 -15,15 -8,0 -15,-7 -15,-15l0 -34 -16 0c-8,0 -15,-7 -15,-15 0,-8 7,-15 15,-15l16 0 0 -63 -16 0zm99 0l-53 0 0 63 53 0 0 -63zm-84 -279l0 0"/>
      </g>
    </symbol>

    <symbol id="icon-4" viewBox="0 0 709 708">
      <g class="svg__icons">
        <path class="fil0" d="M391 289c-6,-5 -7,-14 -1,-20 5,-6 14,-6 20,-1l79 73c6,5 7,14 1,20 0,0 0,1 -1,1l-79 72c-6,6 -15,5 -20,0 -6,-6 -5,-15 1,-21l67 -62 -67 -62zm-34 -45c3,-8 11,-11 18,-8 8,3 11,11 8,19l-87 204c-3,7 -12,11 -19,8 -7,-3 -11,-12 -8,-19l88 -204zm-122 24c5,-5 15,-5 20,1 5,6 5,15 -1,20l-68 62 68 62c6,6 6,15 1,21 -5,5 -15,6 -20,0l-80 -72c0,0 -1,-1 -1,-1 -5,-6 -5,-15 1,-20l80 -73zm310 211c18,0 34,7 46,19l0 0c12,12 20,28 20,46 0,19 -8,35 -20,47l0 0c-12,12 -28,19 -46,19 -18,0 -35,-7 -47,-19l0 0c-12,-12 -19,-28 -19,-47 0,-18 7,-34 19,-46l0 0c12,-12 29,-19 47,-19zm26 39c-7,-6 -16,-11 -26,-11 -10,0 -20,5 -26,11 -7,7 -11,16 -11,26 0,11 4,20 11,27 6,6 16,10 26,10 10,0 19,-4 26,-10 7,-7 11,-16 11,-27 0,-10 -4,-19 -11,-26zm-140 72l-35 -6c-7,-1 -11,-6 -12,-12l0 0c-2,-9 -3,-18 -3,-28 0,-9 1,-18 3,-28 1,-6 6,-11 13,-12l34 -5 1 -1 0 -1 0 -1 -21 -29c-4,-5 -3,-12 0,-17l0 0c5,-7 11,-15 18,-21l0 0c7,-7 14,-13 22,-18 5,-4 12,-4 17,0l28 21 2 -1 0 0 1 0 6 -36c1,-6 6,-11 12,-12l0 0c9,-2 19,-2 28,-2 9,0 18,0 28,2 6,1 11,7 12,13l5 35 2 0 0 1 1 0 26 -19 0 -267 -590 0 0 437c0,9 4,18 10,24 6,6 14,10 24,10l352 0 17 -24 0 -2 0 0 -1 -1zm-20 -33l32 5c6,1 11,5 13,11 0,2 1,5 2,7l0 0 0 0c1,3 3,5 4,8l0 0c2,4 2,10 -1,15l-20 27c2,3 5,7 8,10l1 0c3,3 6,6 9,8l27 -19c4,-4 10,-4 16,-2 2,2 4,3 7,4 3,1 5,2 8,3l0 0c5,1 9,6 10,11l5 34c4,0 8,0 13,0 4,0 9,0 13,0l5 -33c0,-6 4,-11 10,-12 3,-1 5,-2 8,-3l0 0 0 0c2,-1 5,-2 7,-4l0 0c5,-2 11,-2 15,2l28 19c3,-2 6,-5 9,-8l0 0c3,-3 6,-7 9,-10l-20 -27c-3,-4 -4,-10 -1,-15 1,-3 2,-5 3,-8 1,-2 2,-5 3,-7l0 0c2,-6 6,-10 12,-10l33 -6c0,-4 1,-8 1,-13 0,-4 -1,-8 -1,-13l-32 -5c-6,0 -11,-4 -13,-10 -1,-2 -2,-5 -3,-7l0 0 0 0c-1,-3 -2,-5 -3,-8l0 0c-3,-5 -2,-10 1,-15l20 -27c-3,-4 -6,-7 -9,-10l0 0c-3,-3 -6,-6 -9,-9l-27 20c-5,3 -11,4 -16,1 -2,-1 -4,-2 -7,-3l0 0c-3,-1 -5,-2 -8,-3l0 0c-5,-1 -9,-6 -10,-11l-5 -34c-4,0 -9,0 -13,0 -5,0 -9,0 -13,0l-5 33c-1,5 -5,10 -10,12 -3,1 -5,2 -8,3l0 0 0 0c-3,1 -5,2 -7,3l0 0c-5,3 -11,3 -16,-1l-27 -20c-3,3 -6,6 -9,9l-1 0c-3,3 -6,6 -8,10l19 26c4,4 5,11 2,16 -1,3 -3,5 -3,7l-1 1c-1,2 -2,5 -2,7l0 0c-2,5 -6,9 -12,10l-33 5c-1,5 -1,9 -1,13 0,5 0,9 1,13zm237 -140c4,4 8,8 13,12l0 0c6,6 12,14 18,21 4,6 3,13 -1,18l-21 28 1 2 0 0 1 1 35 6c6,1 11,5 12,11l0 0c2,10 3,19 3,28 0,10 -1,19 -3,28 -1,7 -7,12 -13,12l-34 6 -1 1 -1 2 22 29c3,5 3,12 0,17l0 0c-6,7 -12,14 -18,21l0 0c-7,7 -14,13 -22,18 -5,4 -13,4 -18,-1l-28 -20 -1 0 0 1 -2 0 -5 36c-1,6 -6,11 -12,12l0 0c-10,1 -19,2 -28,2 -9,0 -19,-1 -28,-2 -7,-1 -12,-7 -12,-13l-6 -35 -1 0 -2 -1 -29 21c-5,4 -11,4 -16,0l0 0c-8,-5 -15,-11 -22,-18l0 0c-4,-4 -9,-9 -13,-14l-353 0c-18,0 -33,-7 -45,-19l0 0c-11,-11 -18,-27 -18,-44l0 -452 0 -68c0,-18 7,-33 18,-45l0 0c12,-11 27,-18 45,-18l522 0c17,0 33,7 44,18l0 0c12,12 19,27 19,45l0 68 0 286zm-619 -354l0 54 590 0 0 -54c0,-10 -4,-18 -10,-24 -6,-6 -15,-10 -24,-10l-522 0c-10,0 -18,4 -24,10 -6,6 -10,14 -10,24zm45 25c-8,0 -15,-7 -15,-15 0,-8 7,-14 15,-14l1 0c8,0 14,6 14,14 0,8 -6,15 -14,15l-1 0zm60 0c-8,0 -14,-7 -14,-15 0,-8 6,-14 14,-14l1 0c8,0 15,6 15,14 0,8 -7,15 -15,15l-1 0zm61 0c-8,0 -14,-7 -14,-15 0,-8 6,-14 14,-14l1 0c8,0 15,6 15,14 0,8 -7,15 -15,15l-1 0z"/>
      </g>
    </symbol>

    <symbol id="icon-phone" viewBox="0 0 43 43">
      <g class="svg__icons">
        <path class="fil0" d="M15 21c-2,-2 -3,-5 -1,-8 0,-1 1,-2 1,-3 1,-1 0,-2 0,-3 -3,-2 -5,-4 -7,-6 0,-1 -1,-1 -2,-1 0,0 -1,0 -2,1 -2,2 -3,5 -4,9 0,5 0,10 4,14 5,5 10,10 15,14 4,4 9,5 14,4 4,0 7,-2 9,-4 0,0 1,-1 1,-2 0,0 -1,-1 -1,-2 -2,-2 -4,-4 -6,-6 -1,-1 -3,-1 -4,0 -1,0 -1,1 -2,1 -3,1 -6,1 -8,-1 -3,-2 -5,-5 -7,-7z"/>
      </g>
    </symbol>

    <symbol id="icon-phone_circle" viewBox="0 0 0.91 0.91">
      <g class="svg__icons">
        <path class="fil0" d="M0.417 0.46c-0.019,-0.019 -0.023,-0.047 -0.011,-0.071 0.004,-0.008 0.009,-0.017 0.013,-0.025 0.005,-0.01 0.003,-0.021 -0.005,-0.028 -0.018,-0.019 -0.037,-0.038 -0.056,-0.057 -0.005,-0.005 -0.011,-0.007 -0.017,-0.007 -0.007,0 -0.013,0.003 -0.018,0.007 -0.019,0.02 -0.033,0.045 -0.037,0.078 -0.006,0.046 0.002,0.096 0.036,0.13 0.043,0.043 0.086,0.086 0.13,0.13 0.034,0.034 0.083,0.041 0.129,0.036 0.033,-0.005 0.058,-0.019 0.078,-0.038 0.005,-0.005 0.007,-0.01 0.007,-0.017 0,-0.007 -0.002,-0.013 -0.007,-0.018 -0.019,-0.019 -0.037,-0.037 -0.056,-0.056 -0.008,-0.008 -0.019,-0.009 -0.028,-0.005 -0.009,0.005 -0.017,0.009 -0.026,0.014 -0.024,0.012 -0.052,0.007 -0.071,-0.012 -0.02,-0.02 -0.041,-0.041 -0.061,-0.061z"/>
        <path class="fil1" d="M0.455 0c0.126,0 0.239,0.051 0.322,0.133 0.082,0.083 0.133,0.196 0.133,0.322 0,0.126 -0.051,0.239 -0.133,0.322 -0.083,0.082 -0.196,0.133 -0.322,0.133 -0.126,0 -0.239,-0.051 -0.322,-0.133 -0.082,-0.083 -0.133,-0.196 -0.133,-0.322 0,-0.126 0.051,-0.239 0.133,-0.322 0.083,-0.082 0.196,-0.133 0.322,-0.133zm0.303 0.152c-0.078,-0.078 -0.185,-0.126 -0.303,-0.126 -0.118,0 -0.226,0.048 -0.303,0.126 -0.078,0.077 -0.126,0.185 -0.126,0.303 0,0.118 0.048,0.225 0.126,0.303 0.077,0.078 0.185,0.126 0.303,0.126 0.118,0 0.225,-0.048 0.303,-0.126 0.078,-0.078 0.126,-0.185 0.126,-0.303 0,-0.118 -0.048,-0.226 -0.126,-0.303z"/>
      </g>
    </symbol>

    <symbol id="icon-mail" viewBox="0 0 63 41">
      <g class="svg__icons">
        <path class="fil0" d="M3 0l57 0c1,0 3,1 3,3l0 7 -28 16c-1,1 -2,1 -4,1 -1,0 -2,0 -3,-1l-28 -16 0 -7c0,-2 1,-3 3,-3zm60 13l0 26c0,1 -2,2 -3,2l-57 0c-2,0 -3,-1 -3,-2l0 -26 26 16c2,1 4,1 5,1 2,0 4,0 5,-1l27 -16z"/>
      </g>
    </symbol>

    <symbol id="icon-nav" viewBox="0 0 145 103">
      <g class="svg__icons">
        <polygon class="fil0" points="0,85 0,103 145,103 145,85 "/>
        <polygon class="fil1" points="0,43 0,61 145,61 145,43 "/>
        <polygon class="fil2" points="145,0 0,0 0,18 145,18 "/>
      </g>
    </symbol>

    <symbol id="icon-user" viewBox="0 0 96 98">
      <g class="svg__icons">
        <path class="fil0" d="M95 75c-11,14 -28,23 -47,23 -19,0 -36,-9 -47,-23 -1,-2 -1,-4 0,-6 3,-4 9,-9 12,-11 5,-2 9,-4 14,-6 1,0 3,0 4,1 11,9 22,9 33,0 2,-1 3,-1 5,-1 4,2 9,4 13,6 4,2 9,7 13,11 1,2 1,4 0,6zm-47 -75c12,0 23,10 23,26 0,15 -11,28 -23,28 -13,0 -23,-13 -23,-28 0,-16 10,-26 23,-26z"/>
      </g>
    </symbol>

  </defs>
</svg>