<?xml version="1.0" standalone="no"?>
<!DOCTYPE svg PUBLIC "-//W3C//DTD SVG 20010904//EN"
 "http://www.w3.org/TR/2001/REC-SVG-20010904/DTD/svg10.dtd">
<svg version="1.0" xmlns="http://www.w3.org/2000/svg"
 width="880.000000pt" height="880.000000pt" viewBox="0 0 880.000000 880.000000"
 preserveAspectRatio="xMidYMid meet">
<metadata>
Created by potrace 1.11, written by Peter Selinger 2001-2013
</metadata>
<g transform="translate(0.000000,880.000000) scale(0.100000,-0.100000)"
fill="#000000" stroke="none">
<path d="M2730 8764 c-58 -19 -112 -37 -120 -41 -8 -3 -17 -7 -20 -8 -136 -47
-426 -192 -534 -267 -143 -99 -317 -256 -401 -363 -22 -27 -42 -52 -45 -55
-15 -13 -103 -154 -140 -225 -71 -133 -148 -345 -175 -480 -17 -88 -36 -195
-41 -235 -3 -25 -7 -63 -10 -85 -3 -22 -7 -312 -9 -645 -3 -565 -8 -768 -19
-801 -3 -8 -7 -30 -10 -49 -11 -70 -32 -153 -46 -179 -5 -9 -18 -37 -29 -63
-28 -67 -85 -151 -136 -199 -53 -50 -156 -120 -167 -113 -4 3 -8 1 -8 -4 0 -6
-12 -13 -27 -18 -35 -9 -33 -9 -63 -21 -22 -9 -80 -22 -135 -29 -11 -1 -20 -3
-20 -4 0 -1 -31 -3 -70 -4 l-70 -3 -3 -467 -2 -466 62 -2 c35 0 68 -2 73 -3
22 -3 111 -18 120 -20 144 -31 312 -147 392 -271 54 -82 113 -243 130 -349 2
-16 6 -41 9 -55 12 -67 16 -233 19 -775 1 -324 5 -617 9 -650 11 -109 22 -190
26 -190 1 0 3 -11 4 -25 5 -43 16 -92 42 -190 14 -52 27 -102 29 -110 10 -48
92 -231 160 -355 18 -34 87 -139 109 -167 11 -14 32 -41 46 -60 31 -42 214
-225 258 -258 18 -14 43 -33 55 -44 18 -15 156 -106 232 -153 122 -76 525
-240 625 -255 22 -3 29 14 117 272 52 151 95 280 96 285 2 6 6 16 10 23 5 6 5
12 1 12 -3 0 -1 7 6 15 7 8 9 15 5 15 -4 0 -2 7 5 15 7 8 10 15 7 15 -3 0 1
16 9 35 9 23 10 35 4 35 -31 0 -229 110 -238 132 -2 4 -9 8 -15 8 -11 0 -119
106 -162 160 -11 14 -37 52 -57 85 -31 52 -50 90 -99 200 -9 21 -48 145 -55
176 -2 11 -6 29 -9 42 -3 12 -8 37 -10 56 -3 18 -7 36 -9 40 -2 3 -7 33 -11
66 -3 33 -9 74 -12 90 -3 17 -7 291 -9 610 -4 720 -7 806 -36 955 -5 30 -11
62 -12 70 -1 9 -5 21 -10 28 -4 6 -5 12 -2 12 2 0 0 15 -5 33 -6 17 -12 39
-14 47 -67 258 -249 529 -470 699 -33 25 -62 48 -65 51 -6 6 -26 18 -118 72
-67 39 -87 58 -62 58 14 0 190 107 212 129 9 9 35 29 57 45 23 17 41 33 41 38
0 4 4 8 9 8 12 0 99 89 93 95 -3 3 0 5 5 5 6 0 30 24 52 53 22 28 44 57 49 62
44 57 152 261 152 288 0 7 4 17 9 22 5 6 21 51 36 101 26 91 31 112 40 169 3
17 8 41 10 55 8 38 15 106 20 195 5 73 8 1067 4 1090 -1 6 -1 14 0 18 1 4 4
61 7 125 7 130 11 187 14 187 1 0 4 19 6 42 2 23 13 80 25 125 11 46 22 92 24
102 15 64 54 160 112 271 18 34 79 122 102 147 118 126 205 191 332 250 64 29
70 35 66 58 -3 18 -200 602 -208 618 -1 1 -3 7 -4 12 -1 6 -4 12 -5 15 -1 3
-3 8 -5 13 -5 20 -18 42 -24 41 -3 0 -53 -16 -111 -35z"/>
<path d="M5887 8628 c-32 -95 -59 -177 -60 -183 -1 -5 -4 -12 -7 -15 -3 -3
-20 -52 -39 -110 -19 -58 -37 -109 -40 -115 -3 -5 -7 -14 -8 -20 -1 -5 -10
-32 -19 -58 -9 -26 -15 -49 -13 -51 2 -1 38 -19 79 -40 102 -51 135 -69 155
-89 9 -9 20 -17 24 -17 13 0 171 -165 171 -178 0 -4 11 -20 25 -36 47 -54 151
-285 170 -379 2 -10 6 -26 9 -35 10 -34 36 -167 41 -207 1 -16 4 -30 5 -30 3
0 10 -107 15 -257 3 -87 5 -161 6 -165 1 -5 1 -12 0 -18 -6 -29 -2 -616 4
-625 3 -5 3 -10 -2 -10 -11 0 -2 -309 12 -430 13 -106 54 -299 67 -306 4 -3 8
-14 8 -25 0 -64 165 -375 230 -434 11 -10 20 -22 20 -26 0 -8 72 -82 136 -139
85 -76 190 -148 302 -207 17 -9 32 -20 32 -24 0 -4 -21 -17 -47 -30 -189 -89
-384 -260 -510 -447 -69 -101 -151 -269 -168 -342 -2 -8 -13 -46 -23 -85 -11
-38 -23 -86 -26 -105 -3 -19 -8 -46 -11 -60 -13 -66 -25 -237 -25 -350 1 -47
1 -92 1 -100 -2 -63 -2 -228 0 -236 1 -5 0 -13 -1 -19 -2 -12 -2 -208 1 -221
1 -5 1 -13 -1 -19 -4 -26 -1 -296 5 -305 3 -5 3 -10 -2 -10 -4 0 -8 -39 -9
-88 0 -80 -11 -228 -18 -269 -2 -10 -7 -38 -10 -63 -3 -25 -9 -56 -12 -70 -29
-124 -29 -125 -59 -215 -95 -280 -274 -489 -520 -605 -38 -18 -71 -34 -73 -35
-4 -3 19 -77 44 -145 42 -116 87 -246 87 -257 0 -7 3 -13 7 -13 4 0 7 -6 7
-12 1 -14 51 -160 85 -246 16 -41 24 -52 37 -46 9 3 32 11 51 16 63 17 132 41
245 85 228 89 453 219 635 369 49 41 201 194 230 232 14 18 37 48 52 65 15 18
28 37 28 43 0 7 7 14 15 18 8 3 15 12 15 20 0 8 3 16 8 18 13 6 149 263 165
314 3 10 20 58 36 107 17 48 33 100 36 115 3 15 12 52 20 82 9 30 18 71 20 90
3 19 6 44 9 55 6 32 18 126 24 185 2 30 6 316 7 635 3 544 8 736 20 795 2 13
7 42 10 63 4 22 10 49 14 61 5 11 9 26 10 31 3 28 37 117 64 170 54 104 150
211 225 250 20 11 39 22 42 25 9 9 55 31 70 33 8 2 20 5 25 9 29 18 180 45
283 50 l42 2 0 463 c0 434 -1 463 -17 464 -197 9 -378 58 -450 122 -13 11 -23
17 -23 12 0 -5 -34 25 -75 66 -41 41 -75 79 -75 86 0 6 -4 13 -8 15 -7 3 -85
154 -82 160 0 2 -8 28 -18 58 -10 30 -18 62 -17 70 1 8 -2 20 -6 25 -7 11 -16
70 -25 175 -3 36 -7 335 -9 665 -1 330 -5 618 -8 640 -3 22 -8 67 -11 100 -5
52 -12 95 -31 195 -2 14 -9 46 -15 71 -6 26 -12 53 -13 60 -2 8 -5 19 -8 24
-4 6 -12 35 -19 65 -7 30 -16 60 -20 65 -4 6 -11 21 -15 35 -16 53 -110 252
-156 330 -55 91 -143 203 -229 290 -97 98 -241 220 -258 220 -6 0 -12 3 -14 8
-4 10 -116 82 -127 82 -5 0 -11 4 -13 9 -3 8 -246 130 -314 158 -41 17 -197
74 -209 77 -5 2 -30 9 -55 16 -46 14 -50 15 -85 25 -18 5 -26 -12 -78 -167z"/>
</g>
</svg>
