<?xml version="1.0" encoding="UTF-8"?>
<!DOCTYPE svg PUBLIC "-//W3C//DTD SVG 1.1//EN" "http://www.w3.org/Graphics/SVG/1.1/DTD/svg11.dtd">
<!-- Creator: CorelDRAW X6 -->
<svg xmlns="http://www.w3.org/2000/svg" xml:space="preserve" width="153px" height="200px" version="1.1" shape-rendering="geometricPrecision" text-rendering="geometricPrecision" image-rendering="optimizeQuality" fill-rule="evenodd" clip-rule="evenodd"
viewBox="0 0 1200 1566"
 xmlns:xlink="http://www.w3.org/1999/xlink">
 <g id="icons">
  <metadata id="CorelCorpID_0Corel-Layer"/>
  <path id="bg-char-2" fill="black" fill-rule="nonzero" d="M649 1123l-208 0 -77 443 -197 0 77 -443 -244 0 0 -185 276 0 54 -308 -249 0 0 -185 283 0 78 -445 196 0 -79 445 209 0 78 -445 197 0 -79 445 236 0 0 185 -269 0 -53 308 240 0 0 185 -273 0 -77 443 -197 0 78 -443zm-176 -185l208 0 53 -308 -208 0 -53 308z"/>
 </g>
</svg>
