<?xml version="1.0" encoding="UTF-8"?>
<!DOCTYPE svg PUBLIC "-//W3C//DTD SVG 1.1//EN" "http://www.w3.org/Graphics/SVG/1.1/DTD/svg11.dtd">
<!-- Creator: CorelDRAW X6 -->
<svg xmlns="http://www.w3.org/2000/svg" xml:space="preserve" width="200px" height="66px" version="1.1" shape-rendering="geometricPrecision" text-rendering="geometricPrecision" image-rendering="optimizeQuality" fill-rule="evenodd" clip-rule="evenodd"
viewBox="0 0 3995 1320"
 xmlns:xlink="http://www.w3.org/1999/xlink">
 <g id="icons">
  <metadata id="CorelCorpID_0Corel-Layer"/>
  <path id="bg-char-4" fill="black" fill-rule="nonzero" d="M247 778l483 171 0 237 -730 -309 0 -201 730 -310 0 238 -483 174zm647 59c0,-143 32,-257 96,-341 64,-85 152,-128 263,-128 90,0 163,33 222,100l0 -468 245 0 0 1303 -221 0 -12 -98c-61,77 -139,115 -236,115 -108,0 -194,-43 -260,-128 -65,-85 -97,-203 -97,-355zm245 18c0,86 15,152 45,198 30,46 73,69 130,69 76,0 129,-32 161,-96l0 -364c-31,-64 -84,-96 -159,-96 -118,0 -177,96 -177,289zm1030 448l-245 0 0 -917 245 0 0 917zm-260 -1154c0,-37 12,-67 37,-91 24,-24 58,-35 101,-35 41,0 75,11 100,35 24,24 37,54 37,91 0,37 -13,68 -38,92 -25,23 -58,35 -99,35 -42,0 -75,-12 -100,-35 -25,-24 -38,-55 -38,-92zm806 854l170 -617 256 0 -309 917 -234 0 -310 -917 256 0 171 617zm1035 -227l-493 -172 0 -236 738 310 0 199 -738 311 0 -237 493 -175z"/>
 </g>
</svg>
