<?xml version="1.0" encoding="UTF-8"?>
<!DOCTYPE svg PUBLIC "-//W3C//DTD SVG 1.1//EN" "http://www.w3.org/Graphics/SVG/1.1/DTD/svg11.dtd">
<!-- Creator: CorelDRAW X6 -->
<svg xmlns="http://www.w3.org/2000/svg" xml:space="preserve" width="180px" height="200px" version="1.1" shape-rendering="geometricPrecision" text-rendering="geometricPrecision" image-rendering="optimizeQuality" fill-rule="evenodd" clip-rule="evenodd"
viewBox="0 0 1309 1451"
 xmlns:xlink="http://www.w3.org/1999/xlink">
 <g id="icons">
  <metadata id="CorelCorpID_0Corel-Layer"/>
  <path id="bg-char-1" fill="black" fill-rule="nonzero" d="M399 1451c-178,-50 -267,-165 -267,-346l0 -147c0,-105 -44,-157 -132,-157l0 -153c86,0 130,-49 132,-147l0 -157c0,-92 22,-165 67,-222 44,-56 111,-97 200,-122l41 119c-37,14 -66,38 -85,72 -19,35 -29,82 -30,143l0 155c0,112 -45,190 -133,235 88,46 133,125 133,237l0 157c2,116 41,187 115,213l-41 120zm469 -120c75,-27 114,-99 116,-216l0 -157c0,-112 45,-189 135,-233 -90,-43 -135,-122 -135,-236l0 -155c-2,-115 -41,-187 -116,-215l42 -119c88,25 155,65 199,121 45,56 67,130 68,220l0 160c2,98 46,147 132,147l0 153c-88,0 -132,52 -132,155l0 161c-4,174 -93,285 -267,334l-42 -120z"/>
 </g>
</svg>
