<?xml version="1.0" encoding="UTF-8"?>
<!DOCTYPE svg PUBLIC "-//W3C//DTD SVG 1.1//EN" "http://www.w3.org/Graphics/SVG/1.1/DTD/svg11.dtd">
<!-- Creator: CorelDRAW X6 -->
<svg xmlns="http://www.w3.org/2000/svg" xml:space="preserve" width="200px" height="204px" version="1.1" shape-rendering="geometricPrecision" text-rendering="geometricPrecision" image-rendering="optimizeQuality" fill-rule="evenodd" clip-rule="evenodd"
viewBox="0 0 7987 8155"
 xmlns:xlink="http://www.w3.org/1999/xlink">
 <g id="icons">
  <metadata id="CorelCorpID_0Corel-Layer"/>
  <path id="icon-user" fill="none" fill-rule="nonzero" stroke="black" stroke-width="8.61658" stroke-linecap="round" stroke-linejoin="round" d="M7908 6230c-905,1168 -2322,1921 -3915,1921 -1592,0 -3009,-753 -3914,-1921 -103,-133 -99,-315 9,-444 290,-347 734,-773 1029,-901 376,-163 750,-331 1124,-497 126,-57 264,-37 371,51 920,767 1843,767 2763,0 107,-88 245,-108 371,-51 374,166 748,334 1124,497 295,128 739,554 1029,901 108,129 112,311 9,444zm-3915 -6226c1059,0 1918,827 1918,2141 0,1314 -859,2379 -1918,2379 -1058,0 -1917,-1065 -1917,-2379 0,-1314 859,-2141 1917,-2141z"/>
 </g>
</svg>
