<?xml version="1.0" encoding="UTF-8"?>
<!DOCTYPE svg PUBLIC "-//W3C//DTD SVG 1.1//EN" "http://www.w3.org/Graphics/SVG/1.1/DTD/svg11.dtd">
<!-- Creator: CorelDRAW X6 -->
<svg xmlns="http://www.w3.org/2000/svg" xml:space="preserve" width="200px" height="200px" version="1.1" shape-rendering="geometricPrecision" text-rendering="geometricPrecision" image-rendering="optimizeQuality" fill-rule="evenodd" clip-rule="evenodd"
viewBox="0 0 4198 4196"
 xmlns:xlink="http://www.w3.org/1999/xlink">
 <g id="icons">
  <metadata id="CorelCorpID_0Corel-Layer"/>
  <path fill="none" stroke="black" stroke-width="161.476" stroke-linecap="round" stroke-linejoin="round" d="M81 773l3675 0m-1246 2971l-2143 0c-158,0 -286,-128 -286,-286l0 -3091c0,-158 128,-286 286,-286l3103 0c157,0 286,128 286,286l0 2147m-1137 907l-262 -41c-17,-100 -17,-203 0,-303l262 -41c11,-36 26,-71 43,-104l-156 -214c59,-83 131,-156 215,-215l214 156c33,-17 67,-31 103,-43l41 -261c101,-17 203,-17 304,0l41 261c36,12 71,26 103,43l215 -156c83,59 155,132 214,215l-156 214c17,33 32,68 43,104l262 41c17,100 17,203 0,303l-262 41c-11,36 -26,71 -43,104l156 214c-59,83 -131,156 -214,214l-215 -156c-32,18 -67,32 -103,43l-41 262c-101,17 -203,17 -304,0l-41 -262c-36,-11 -70,-25 -103,-43l-214 156c-84,-58 -156,-131 -215,-214l156 -214c-17,-33 -32,-68 -43,-104zm612 -498c169,0 305,137 305,305 0,169 -136,305 -305,305 -168,0 -305,-136 -305,-305 0,-168 137,-305 305,-305zm-1785 -1273l-472 431 472 432m745 -1038l-518 1213m700 -1038l472 431 -472 432m-1216 -2093c6,0 10,4 10,10 0,6 -4,10 -10,10 -6,0 -10,-4 -10,-10 0,-6 4,-10 10,-10m-361 0c6,0 10,4 10,10 0,6 -4,10 -10,10 -5,0 -10,-4 -10,-10 0,-6 5,-10 10,-10m-360 0c5,0 10,4 10,10 0,6 -5,10 -10,10 -6,0 -10,-4 -10,-10 0,-6 4,-10 10,-10"/>
 </g>
</svg>
