<?xml version="1.0" encoding="UTF-8"?>
<!DOCTYPE svg PUBLIC "-//W3C//DTD SVG 1.1//EN" "http://www.w3.org/Graphics/SVG/1.1/DTD/svg11.dtd">
<!-- Creator: CorelDRAW X6 -->
<svg xmlns="http://www.w3.org/2000/svg" xml:space="preserve" width="200px" height="200px" version="1.1" shape-rendering="geometricPrecision" text-rendering="geometricPrecision" image-rendering="optimizeQuality" fill-rule="evenodd" clip-rule="evenodd"
viewBox="0 0 2667 2667"
 xmlns:xlink="http://www.w3.org/1999/xlink">
 <g id="icons">
  <metadata id="CorelCorpID_0Corel-Layer"/>
  <path id="icon-phone" fill="none" fill-rule="nonzero" stroke="black" stroke-width="2.8774" stroke-linecap="round" stroke-linejoin="round" d="M927 1310c-132,-132 -162,-325 -77,-491 31,-60 61,-119 91,-178 34,-66 22,-144 -30,-197 -132,-131 -263,-262 -394,-393 -33,-33 -74,-50 -121,-50 -47,1 -88,19 -120,53 -133,138 -233,312 -262,541 -41,319 14,666 251,903 301,301 603,603 904,904 237,237 584,292 903,251 229,-29 403,-129 541,-261 34,-33 52,-74 53,-121 0,-47 -16,-88 -50,-121 -131,-131 -262,-262 -393,-394 -53,-52 -130,-64 -197,-30 -59,30 -118,60 -177,91 -167,85 -360,55 -492,-77 -144,-143 -287,-286 -430,-430z"/>
 </g>
</svg>
