<?xml version="1.0" encoding="UTF-8"?>
<!DOCTYPE svg PUBLIC "-//W3C//DTD SVG 1.1//EN" "http://www.w3.org/Graphics/SVG/1.1/DTD/svg11.dtd">
<!-- Creator: CorelDRAW X6 -->
<svg xmlns="http://www.w3.org/2000/svg" xml:space="preserve" width="200px" height="132px" version="1.1" shape-rendering="geometricPrecision" text-rendering="geometricPrecision" image-rendering="optimizeQuality" fill-rule="evenodd" clip-rule="evenodd"
viewBox="0 0 2001 1318"
 xmlns:xlink="http://www.w3.org/1999/xlink">
 <g id="icons">
  <metadata id="CorelCorpID_0Corel-Layer"/>
  <path id="icon-mail" fill="none" fill-rule="nonzero" stroke="black" stroke-width="2.15853" stroke-linecap="round" stroke-linejoin="round" d="M88 1l1825 0c48,0 87,39 87,87l0 217 -886 540c-36,21 -75,32 -114,32 -38,0 -77,-11 -113,-32l-886 -540 0 -217c0,-48 39,-87 87,-87zm1912 406l0 823c0,48 -39,87 -87,87l-1825 0c-48,0 -87,-39 -87,-87l0 -823 841 512c50,30 104,45 158,45 55,0 109,-15 159,-45l841 -512z"/>
 </g>
</svg>
