<?xml version="1.0" encoding="UTF-8"?>
<!DOCTYPE svg PUBLIC "-//W3C//DTD SVG 1.1//EN" "http://www.w3.org/Graphics/SVG/1.1/DTD/svg11.dtd">
<!-- Creator: CorelDRAW X6 -->
<svg xmlns="http://www.w3.org/2000/svg" xml:space="preserve" width="200px" height="190px" version="1.1" shape-rendering="geometricPrecision" text-rendering="geometricPrecision" image-rendering="optimizeQuality" fill-rule="evenodd" clip-rule="evenodd"
viewBox="0 0 8475 8055"
 xmlns:xlink="http://www.w3.org/1999/xlink">
 <g id="icons">
  <metadata id="CorelCorpID_0Corel-Layer"/>
  <path fill="none" stroke="black" stroke-width="325.961" stroke-linecap="round" stroke-linejoin="round" d="M6159 7154l2153 0m-4510 -337l1559 0m-1559 633l1320 0c106,0 198,-47 261,-133 63,-87 79,-188 46,-290l-383 -1180m-4883 1304l3639 0m-3639 -3418l3639 0m503 -660l423 -406m441 -424l675 -648m-1968 877l676 -649m425 -408l448 -430m-3669 4089l697 -670m-1562 1501l415 -398m191 813l1562 -1501m4066 1658l546 -525m-820 -35l546 -525m-3595 -654l4510 0m-2153 1109l-2357 0m-3262 -2874l0 -2272c0,-296 242,-538 538,-538l6254 0c297,0 539,242 539,538l0 3262m-1389 0l1507 0c178,0 323,145 323,323l0 3283c0,178 -145,323 -323,323l-1507 0c-178,0 -323,-145 -323,-323l0 -3283c0,-178 145,-323 323,-323zm-5996 -990l2993 0c177,0 323,145 323,323l0 4252c0,178 -146,323 -323,323l-2993 0c-178,0 -323,-145 -323,-323l0 -4252c0,-178 145,-323 323,-323zm633 -2231c11,0 20,9 20,20 0,11 -9,21 -20,21 -11,0 -20,-10 -20,-21 0,-11 9,-20 20,-20m581 0c12,0 21,9 21,20 0,11 -9,21 -21,21 -11,0 -20,-10 -20,-21 0,-11 9,-20 20,-20m582 0c11,0 20,9 20,20 0,11 -9,21 -20,21 -12,0 -21,-10 -21,-21 0,-11 9,-20 21,-20"/>
 </g>
</svg>
