<?xml version="1.0" encoding="UTF-8"?>
<!DOCTYPE svg PUBLIC "-//W3C//DTD SVG 1.1//EN" "http://www.w3.org/Graphics/SVG/1.1/DTD/svg11.dtd">
<!-- Creator: CorelDRAW X6 -->
<svg xmlns="http://www.w3.org/2000/svg" xml:space="preserve" width="200px" height="200px" version="1.1" shape-rendering="geometricPrecision" text-rendering="geometricPrecision" image-rendering="optimizeQuality" fill-rule="evenodd" clip-rule="evenodd"
viewBox="0 0 1658 1656"
 xmlns:xlink="http://www.w3.org/1999/xlink">
 <g id="icons">
  <metadata id="CorelCorpID_0Corel-Layer"/>
  <path fill="none" stroke="black" stroke-width="63.7662" stroke-linecap="round" stroke-linejoin="round" d="M560 575l273 -259 273 259m-25 641l0 -434m-259 323l331 0m-260 111l0 -434m-71 112l331 0m-462 192l0 54c0,37 -30,68 -67,68l-83 0c-37,0 -67,-31 -67,-68l0 -282c0,-38 30,-68 67,-68l83 0c37,0 67,30 67,68l0 54m-461 -337l1182 0c37,0 67,31 67,68l0 703c0,38 -30,68 -67,68l-1182 0c-37,0 -67,-30 -67,-68l0 -703c0,-37 30,-68 67,-68zm-85 -543l1368 0c62,0 113,51 113,113l0 1366c0,62 -51,113 -113,113l-1368 0c-62,0 -113,-51 -113,-113l0 -1366c0,-62 51,-113 113,-113zm888 276l430 0m-1300 0l469 0m-287 -144c3,0 4,2 4,4 0,2 -1,4 -4,4 -2,0 -4,-2 -4,-4 0,-2 2,-4 4,-4m-138 0c2,0 4,2 4,4 0,2 -2,4 -4,4 -3,0 -4,-2 -4,-4 0,-2 1,-4 4,-4m1241 0c2,0 4,2 4,4 0,2 -2,4 -4,4 -2,0 -4,-2 -4,-4 0,-2 2,-4 4,-4"/>
 </g>
</svg>
