<?xml version="1.0" encoding="UTF-8"?>
<!DOCTYPE svg PUBLIC "-//W3C//DTD SVG 1.1//EN" "http://www.w3.org/Graphics/SVG/1.1/DTD/svg11.dtd">
<!-- Creator: CorelDRAW X6 -->
<svg xmlns="http://www.w3.org/2000/svg" xml:space="preserve" width="200px" height="185px" version="1.1" shape-rendering="geometricPrecision" text-rendering="geometricPrecision" image-rendering="optimizeQuality" fill-rule="evenodd" clip-rule="evenodd"
viewBox="0 0 2790 2580"
 xmlns:xlink="http://www.w3.org/1999/xlink">
 <g id="icons">
  <metadata id="CorelCorpID_0Corel-Layer"/>
  <path fill="none" stroke="black" stroke-width="107.32" stroke-linecap="round" stroke-linejoin="round" d="M597 1446c4,0 7,3 7,7 0,3 -3,6 -7,6 -3,0 -6,-3 -6,-6 0,-4 3,-7 6,-7m-367 -1392l2330 0c97,0 177,79 177,176l0 1580c0,98 -80,177 -177,177l-2330 0c-97,0 -176,-79 -176,-177l0 -1580c0,-97 79,-176 176,-176zm-176 1637l2683 0m-1841 -238l1299 0m-1203 -1010l-389 355 389 355m555 -823l-301 947m559 -834l389 355 -389 355m-1060 1373l1300 0m-987 -539c-6,238 -9,436 -91,539m765 -539c6,238 9,436 91,539"/>
 </g>
</svg>
